<svg width="321" height="347" viewBox="0 0 321 347" fill="none" xmlns="http://www.w3.org/2000/svg">
<path d="M0.641602 24.0233C3.57269 22.3977 10.0211 18.8805 12.366 17.8164C13.9292 14.979 14.9714 11.9051 15.297 10.7229L34.8376 7.61944L44.1194 0.525879H52.4241L58.7748 7.61944C66.1025 7.32388 82.4189 5.84605 89.0627 2.29927C97.6606 2.29927 117.397 2.59484 126.19 2.74262L133.029 8.94949H141.822L146.707 0.525879L172.11 2.74262L177.972 17.3731L219.008 29.3435L211.68 61.2645L197.513 79.8851L194.093 101.609C184.812 96.1412 162.731 85.2053 148.662 85.2053H121.793C118.048 86.2398 109.971 88.8408 107.626 90.9688C105.281 93.0969 101.113 70.5748 99.3215 59.0478L89.0627 53.2843L66.5911 52.8409L55.3552 43.974L10.4119 46.1907L0.641602 24.0233Z" fill="white" fill-opacity="0.81"/>
<path d="M99.3215 113.58L115.931 99.8358C122.445 97.9146 139.966 95.225 157.943 99.8358C175.921 104.447 187.254 111.806 190.674 114.91L200.933 118.9L209.237 120.23V154.368C212.006 160.279 220.669 173.254 233.175 177.865C245.68 182.476 251.738 183.629 253.204 183.629L268.348 185.402C269.487 185.993 272.256 188.151 274.21 192.052C274.991 193.826 275.838 197.225 276.164 198.702L293.75 208.013L299.124 230.18L314.268 251.461L319.642 263.875V266.535H311.337L303.521 276.288L299.124 278.948L292.285 280.722L283.98 282.052L272.744 284.269H266.394C265.668 282.907 263.462 282.297 262.485 282.052C258.577 281.072 254.181 286.485 258.089 294.909C263.873 307.376 247.089 308.354 241.991 308.651L241.968 308.653C240.502 311.904 234.64 318.672 222.916 319.736C211.191 320.8 208.586 332.593 208.749 338.357C206.958 343.234 197.611 350.505 174.553 340.574C151.495 330.643 139.868 289.145 136.937 269.638C132.541 262.544 120.035 253.766 105.184 275.402C86.0339 297.392 77.3384 278.653 75.3843 266.535L62.1944 271.411L41.6768 235.5L42.6539 222.2L40.2113 218.21L47.0505 176.092L40.6998 162.791L26.5329 162.348L24.5788 155.254L23.1133 150.821H24.5788H46.0735C51.9356 150.821 57.9606 147.865 60.2404 146.387L99.3215 113.58Z" fill="white" fill-opacity="0.81"/>
<path d="M99.3215 59.0478C101.113 70.5748 105.281 93.0969 107.626 90.9688C109.971 88.8408 118.048 86.2398 121.793 85.2053C124.887 85.2053 134.592 85.2053 148.662 85.2053C162.731 85.2053 184.812 96.1412 194.093 101.609L197.513 79.8851L211.68 61.2645L219.008 29.3435L177.972 17.3731L172.11 2.74262L146.707 0.525879L141.822 8.94949H133.029L126.19 2.74262C117.397 2.59484 97.6606 2.29927 89.0627 2.29927C82.4189 5.84605 66.1026 7.32388 58.7748 7.61944L52.4241 0.525879H44.1194L34.8376 7.61944L15.297 10.7229C14.9714 11.9051 13.9292 14.979 12.366 17.8164C10.0211 18.8805 3.57269 22.3977 0.641602 24.0233L10.4119 46.1907L55.3552 43.974L66.5911 52.8409L89.0627 53.2843L99.3215 59.0478ZM126.19 2.74262V23.1366L117.885 32.8903L107.626 41.7572L99.3215 59.0478M266.394 284.269C265.668 282.907 263.462 282.297 262.485 282.052C258.577 281.072 254.181 286.485 258.089 294.909C263.882 307.395 247.037 308.357 241.968 308.653C240.502 311.904 234.64 318.672 222.916 319.736C211.191 320.8 208.586 332.593 208.749 338.357C206.958 343.234 197.611 350.505 174.553 340.574C151.495 330.643 139.868 289.145 136.937 269.638C132.541 262.544 120.035 253.766 105.184 275.402C86.0339 297.392 77.3384 278.653 75.3843 266.535L62.1944 271.411L41.6768 235.5L42.6539 222.2L40.2113 218.21L47.0505 176.092L40.6998 162.791L26.5329 162.348L24.5788 155.254L23.1133 150.821H24.5788C29.3011 150.821 40.2113 150.821 46.0735 150.821C51.9356 150.821 57.9606 147.865 60.2404 146.387L99.3215 113.58L115.931 99.8358C122.445 97.9146 139.966 95.225 157.943 99.8358C175.921 104.447 187.254 111.806 190.674 114.91L200.933 118.9L209.237 120.23V154.368C212.006 160.279 220.669 173.254 233.175 177.865C245.68 182.476 251.738 183.629 253.204 183.629L268.348 185.402C269.487 185.993 272.256 188.151 274.21 192.052C274.991 193.826 275.838 197.225 276.164 198.702L293.75 208.013L299.124 230.18L314.268 251.461L319.642 263.875V266.535H311.337L303.521 276.288L299.124 278.948L292.285 280.722L283.98 282.052L272.744 284.269H266.394L259.066 270.525C253.366 268.012 241.675 261.924 240.502 257.668C239.33 253.412 240.014 245.845 240.502 242.594L234.152 236.83L217.542 237.717L206.795 240.377L200.444 251.461L185.789 253.234L172.11 257.668L165.76 244.811L161.363 219.54L153.547 211.559L140.357 208.013L125.701 193.382L123.259 161.461L113.977 154.368L111.046 131.314L99.3215 113.58" stroke="#0C1E35"/>
<path d="M75.1416 11.5259L80.7579 23.2957L93.6872 25L84.2289 33.9785L86.6034 46.8017L75.1416 40.5809L63.6798 46.8017L66.0543 33.9785L56.596 25L69.5253 23.2957L75.1416 11.5259Z" fill="#E86955"/>
<path d="M199.142 61.5259L204.758 73.2957L217.687 75L208.229 83.9785L210.603 96.8017L199.142 90.5809L187.68 96.8017L190.054 83.9785L180.596 75L193.525 73.2957L199.142 61.5259Z" fill="#E86955"/>
<path d="M132.142 136.526L137.758 148.296L150.687 150L141.229 158.979L143.603 171.802L132.142 165.581L120.68 171.802L123.054 158.979L113.596 150L126.525 148.296L132.142 136.526Z" fill="#E86955"/>
</svg>
