<svg width="1022" height="452" viewBox="0 0 1022 452" fill="none" xmlns="http://www.w3.org/2000/svg">
<path d="M244.102 0.000976562C212.145 0.0581014 180.508 5.90165 150.98 17.2031C121.307 28.5604 94.3456 45.2069 71.6348 66.1924C48.9239 87.178 30.9082 112.092 18.6172 139.511C6.3262 166.93 2.52558e-05 196.317 0 225.995C-1.40392e-06 255.673 6.32626 285.061 18.6172 312.479C30.9081 339.898 48.9231 364.812 71.6338 385.798C94.3447 406.783 121.307 423.431 150.98 434.788C176.34 444.494 203.256 450.173 230.595 451.619C231.452 451.858 232.354 451.99 233.287 451.99H832.249C853.341 451.99 870.439 434.891 870.439 413.799C870.439 392.707 853.341 375.608 832.249 375.608H239.902C220.223 375.084 200.799 371.25 182.586 364.279C162.934 356.757 145.077 345.733 130.035 331.834C114.994 317.935 103.062 301.434 94.9219 283.274C86.7815 265.115 82.5918 245.651 82.5918 225.995C82.5918 206.339 86.7815 186.876 94.9219 168.716C103.062 150.556 114.994 134.056 130.035 120.157C145.077 106.258 162.934 95.233 182.587 87.7109C202.24 80.189 223.303 76.3174 244.575 76.3174V76H1022.1V0H244.102V0.000976562Z" fill="#FF7442" fill-opacity="0.35"/>
</svg>
